<?xml version="1.0" encoding="UTF-8"?>
<svg id="Layer_1" xmlns="http://www.w3.org/2000/svg" version="1.1" viewBox="0 0 1378.5 695.7">
  <!-- Generator: Adobe Illustrator 29.4.0, SVG Export Plug-In . SVG Version: 2.1.0 Build 152)  -->
  <defs>
    <style>
      .st0 {
        fill: #231f20;
      }

      .st1 {
        fill: #fff;
      }
    </style>
  </defs>
  <rect class="st0" width="1378.5" height="695.7"/>
  <g>
    <path class="st1" d="M787.1,142c5.8-1.3,11.6,0,17.2,1.5,22.6,6.5,40.7,27.3,42.8,50.9,0,2.1,0,4.1,0,6.2-9.8,8.4-19.7,16.7-29.5,25.1-9.3,8.2-18.9,16-28.5,23.9-5.4,4.5-10.9,9-15.8,14,1.9,8.3,3.1,16.8,3.4,25.4,0,12.1-2.6,24.2-7.4,35.3-10.2,23.9-31.6,42.4-56.5,49.6-24.4,7.3-51.9,3-73-11.2-11-7.7-20.5-17.7-27-29.5-10.5-18.3-14.3-40.2-10.5-60.9,2.6-14.5,8.7-28.4,17.7-40.1,8-10,17.6-18.8,28.9-24.8,13.6-6.8,27.4-13.3,41-20.1,13.7,8.3,27.2,16.8,40.9,25.2,1.8,1,3.4,2.3,5.3,2.9,8.5-4.2,17.1-8.2,25.1-13.2,0-.3-.1-.8-.2-1.1-14.5-9.1-29-18.2-43.6-27.3,17-8.4,34.2-16.3,51.2-24.7,5.9-3.1,11.9-6.3,18.6-6.9ZM681.9,252.6c-6,1.2-11.9,3.6-16.7,7.4-8,5.7-12.8,15.1-13.9,24.7,0,4.1-.4,8.3.7,12.3,2.6,11.5,11.3,21.3,22.3,25.3,6.7,2.5,14,2.9,21,2.3,4.3-.7,8.3-2.4,11.9-4.7,4.6-2.9,7.8-7.5,10.9-11.9,7.3-10.8,7.5-25.6,1.2-36.9-4.1-7.8-11.2-14.1-19.6-17-5.7-2-11.9-2.3-17.8-1.5Z"/>
    <g>
      <path class="st1" d="M411.7,438.5c11.1-8.7,26.2-10.9,39.9-8.6,12.5,1.7,24.3,7.5,33.5,16.2-4.6,5.9-9.2,11.9-13.4,18.1-9.3-7.6-21.2-12.7-33.4-11.5-5.1.4-10.8,2.4-13.2,7.2-1.3,2.1-.8,4.8-.8,7.1,0,3.4,3,5.9,5.7,7.5,14.7,7.7,32.6,7.9,46.2,17.8,7.9,5.5,12,15.3,11.3,24.8.9,10.8-4.4,21.7-13.2,27.9-9.7,7.2-22.1,9.6-33.9,9.1-17,.3-32.9-7.9-46.1-18.1,4.9-5.7,9.3-11.8,14-17.7,9.7,7.6,21.5,13.2,34.1,13.2,5.2,0,10.9,0,15.3-3.1,4.7-3.2,6.1-10.2,3.5-15.1-2-3.2-5.5-5-8.9-6.2-10.5-3.6-21.5-6.1-31.9-10.1-8.6-3.3-16.2-9.8-19.4-18.6-2-4.9-1.9-10.2-1.8-15.4,0-9.6,5.2-18.6,12.5-24.5Z"/>
      <path class="st1" d="M915.6,434.4c9.8-4.9,21.2-6.4,32-4.6,12.8,1.6,25,7.2,34.3,16.2-4.2,5.8-8.5,11.6-12.9,17.3-9-6.9-20.2-11.3-31.7-10.8-5,.2-10.5,1.7-13.8,5.6-4.1,5-2.6,13.5,3.4,16.3,10.6,5.5,22.6,7.2,33.7,11.3,9.1,3.1,18.3,8.6,21.8,18.1,2.4,5.1,1.9,10.7,1.9,16.2.1,7.6-3.4,15-8.6,20.5-7.3,7.5-17.4,11.7-27.7,13-12.5,1.5-25.5,0-36.9-5.4-7.1-3.1-13.6-7.4-19.8-12,4.7-5.9,9.3-11.9,13.8-17.9,10.4,7.1,22.3,13.1,35.2,13.1,5.1,0,10.7-.1,14.8-3.5,4.8-3.8,5.9-11.9,1.8-16.5-5.9-5-13.8-5.8-20.9-8.2-9.3-3-19.3-4.8-27.4-10.6-7.6-5.3-12.3-14.3-12.4-23.5,0-4.4-.5-8.9,1.1-13.2,2.6-9.4,9.7-17.2,18.3-21.6Z"/>
      <path class="st1" d="M555.6,430.4c11-1.1,22.3-.5,32.6,3.8,14.6,5.8,26.8,17.6,32.8,32.2,5.8,14.3,6.5,30.6,1.9,45.4-4.7,13.9-13.8,26.8-26.8,34.2-15,8.8-33.7,10.5-50.3,5.6-14.9-4.4-27.9-15.1-35.1-28.8-9.8-18-10.3-40.9-1.1-59.2,8.7-17.6,26.4-30.6,46-33ZM556.7,455.6c-6.8,1.4-13,5.1-17.8,10.1-7.3,7.4-10.6,18.1-9.9,28.3-.8,15.4,10.1,30.5,25.1,34.2,10,2.3,21.3,1.6,30.1-4.1,11.1-6.8,17.2-20.3,16-33.1.9-13.5-7.4-26.6-19.4-32.7-7.4-3.9-16.2-4.2-24.3-2.8Z"/>
      <path class="st1" d="M647.8,432.1c7.8,0,15.5,0,23.3,0,11.5,16.9,23,33.8,34.4,50.8,6.4,9.6,13,18.9,19.1,28.6-.5-26.5,0-53-.2-79.5,8.2,0,16.4,0,24.7,0-.2,40-.2,80,0,119.9-7.8,0-15.6,0-23.4,0-17.7-26.6-35.4-53.1-53.2-79.6,0,26.5,0,53.1,0,79.6-8.1,0-16.3,0-24.4,0,0-40,.1-80,0-120Z"/>
      <path class="st1" d="M775.3,432.1c8.1,0,16.3,0,24.4,0-.2,22.4,0,44.7,0,67.1.2,7.6.3,15.9,5.3,22.2,9,10.6,26.8,11.6,37.5,3,5.7-5,7.3-13,7.1-20.3,0-24,.2-48-.1-72,8.3,0,16.6,0,24.9,0-.2,23,0,46-.2,69,.3,12.3-2.5,25.1-9.9,35.1-4.3,5.4-9.5,10.2-15.8,13.1-10.2,4.8-21.9,5.5-33,4.4-10.7-1.4-21.3-6.2-28.5-14.4-9.6-10.5-12.3-25.4-11.8-39.2,0-22.7,0-45.3,0-68Z"/>
    </g>
  </g>
</svg>